<?xml version="1.0" encoding="UTF-8" standalone="no"?>
<svg
   version="1.0"
   width="522.63904"
   height="312.60565"
   viewBox="0 0 522.63904 312.60565"
   preserveAspectRatio="xMidYMid"
   id="svg267"
   sodipodi:docname="logo.svg"
   inkscape:version="1.2.2 (732a01da63, 2022-12-09)"
   xmlns:inkscape="http://www.inkscape.org/namespaces/inkscape"
   xmlns:sodipodi="http://sodipodi.sourceforge.net/DTD/sodipodi-0.dtd"
   xmlns="http://www.w3.org/2000/svg"
   xmlns:svg="http://www.w3.org/2000/svg">
  <defs
     id="defs271" />
  <sodipodi:namedview
     id="namedview269"
     pagecolor="#505050"
     bordercolor="#eeeeee"
     borderopacity="1"
     inkscape:showpageshadow="0"
     inkscape:pageopacity="0"
     inkscape:pagecheckerboard="0"
     inkscape:deskcolor="#505050"
     showgrid="false"
     inkscape:zoom="0.78333333"
     inkscape:cx="171.70213"
     inkscape:cy="196.59575"
     inkscape:window-width="1366"
     inkscape:window-height="697"
     inkscape:window-x="-8"
     inkscape:window-y="-8"
     inkscape:window-maximized="1"
     inkscape:current-layer="svg267" />
  <g
     fill="#000000"
     fill-rule="evenodd"
     id="g265"
     transform="translate(-67.610942,-7.7260736)">
    <path
       d="m 240.35,320.2 c -84.45,-0.1 -153.75,-0.4 -154,-0.65 -0.25,-0.25 9.45,-10.4 21.5,-22.65 32.45,-32.95 58.65,-59.75 58.65,-60.15 0,-0.15 -1.5,-2.05 -3.3,-4.15 -1.8,-2.15 -4.3,-5.05 -5.5,-6.45 -1.25,-1.45 -2.2,-2.75 -2.2,-2.9 0,-0.15 -1.55,-2.6 -3.35,-5.4 -3.55,-5.4 -9.55,-16.9 -10.95,-20.8 -0.45,-1.25 -1.05,-2.75 -1.3,-3.25 -0.85,-1.6 -4.25,-12.4 -5.4,-17.05 -0.6,-2.5 -1.2,-4.95 -1.35,-5.5 -0.1,-0.55 -0.45,-2.35 -0.7,-4 -2.65,-16.7 -2.25,-37.5 0.95,-51.5 0.95,-4.1 3.15,-12.15 4.4,-15.75 10.95,-33.05 35.65,-61.55 67,-77.55 15.1,-7.65 29.45,-12 46.95,-14.1 11.2,-1.35 33.6,-0.4 42.5,1.8 0.55,0.15 3,0.75 5.5,1.35 34.25,8.3 64.4,30.2 83.25,60.55 6.6,10.6 13.05,25.35 15.5,35.45 1.05,4.25 1.45,5.85 2,8 0.65,2.5 1.25,6.15 2,12.5 l 0.5,4.25 93.6,93.75 93.65,93.75 -27.9,0.1 c -112.7,0.5 -188.05,0.6 -322,0.35 m -144.5,-9.35 c 11.55,-11.9 109.4,-111.65 115.9,-118.1 3,-3.05 9.8,-9.95 15.05,-15.4 5.3,-5.45 9.85,-9.85 10.15,-9.85 0.85,0 0.6,2 -0.75,5.75 -0.75,1.9 -1.5,4.05 -1.7,4.75 -0.2,0.65 -1.3,3.5 -2.45,6.25 -1.15,2.75 -3.3,8.4 -4.85,12.5 -1.55,4.1 -3.45,9.3 -4.3,11.5 -0.85,2.2 -1.8,4.9 -2.15,6 -0.35,1.1 -1.6,4.35 -2.8,7.25 -2.25,5.65 -3.85,9.85 -5.7,15 -0.65,1.75 -2.8,7.5 -4.75,12.75 -2,5.2 -3.95,10.5 -4.35,11.75 -0.4,1.2 -1.05,2.9 -1.4,3.75 -0.7,1.5 -2.3,5.6 -4.8,12.35 -4.9,13.05 -7.4,19.65 -9,23.9 -0.8,2.05 -2.15,5.65 -3,8 -0.9,2.3 -2.25,5.4 -3.05,6.85 l -1.4,2.65 -46.25,0.25 L 88,319 l 7.85,-8.15 m 86.85,7.65 c -0.15,-0.3 0,-1 0.3,-1.6 0.3,-0.55 1.1,-2.55 1.75,-4.35 0.65,-1.85 1.75,-4.8 2.4,-6.55 2.2,-5.7 10.75,-28.3 14.6,-38.5 2.1,-5.7 7.3,-19.5 9.8,-26 1.1,-2.9 2.65,-6.95 3.45,-9 0.75,-2.1 2.3,-6.15 3.4,-9 2.7,-7.05 5.95,-15.7 7.1,-18.75 1.85,-5.05 5.1,-13.6 6,-15.75 0.9,-2.15 3.85,-10.05 7,-18.6 1.6,-4.35 2.35,-5.95 2.9,-5.9 0.2,0 8.55,8.25 18.5,18.35 10,10.1 34.65,34.9 54.75,55.15 76.6,76.95 79.6,80 78.95,80.5 -0.85,0.65 -210.55,0.65 -210.9,0 m 183.4,-30.35 -30.35,-30.8 v -2.3 c 0.05,-1.3 1,-5.9 2.2,-10.3 1.15,-4.4 2.3,-8.8 2.55,-9.75 0.2,-1 0.65,-2.65 1,-3.75 0.55,-2.1 1.15,-4.45 1.9,-7.65 0.25,-1.05 0.95,-3.8 1.55,-6.1 0.6,-2.35 1.3,-5.05 1.55,-6 0.2,-1 0.65,-2.65 0.95,-3.75 0.3,-1.1 1,-3.95 1.5,-6.25 0.55,-2.35 1.5,-5.95 2.05,-8 0.55,-2.1 1.25,-4.8 1.5,-6 0.3,-1.25 0.75,-3.05 1,-4 0.25,-1 0.65,-2.65 0.9,-3.75 0.3,-1.1 1,-3.8 1.6,-6 0.6,-2.2 1.25,-4.9 1.5,-6 0.4,-2 1.3,-5.6 3.5,-13.5 0.6,-2.2 1.25,-4.9 1.5,-6 0.25,-1.1 1.35,-5.6 2.5,-10 1.15,-4.4 2.3,-8.9 2.5,-10 0.25,-1.1 0.9,-3.7 1.45,-5.75 0.5,-2.1 1.7,-6.7 2.6,-10.25 1.15,-4.45 1.9,-6.55 2.45,-6.65 0.4,-0.1 45.15,44.3 107,106.15 78.05,78.05 106.05,106.4 105.6,106.75 -0.4,0.3 -34.5,0.5 -95.35,0.5 H 396.5 l -30.4,-30.85 m -33.25,-33.1 c -0.05,-0.25 -12.35,-12.8 -27.25,-27.9 -25.05,-25.25 -27.1,-27.5 -26.2,-28.05 0.5,-0.4 8.7,-8.6 18.15,-18.25 22.45,-23.05 62.3,-63.75 68.7,-70.1 4.5,-4.5 5,-4.9 5.15,-3.8 0.1,0.7 -0.05,2 -0.35,3 -0.55,1.75 -4.8,18.65 -5.55,22.05 -0.25,0.95 -1.35,5.35 -2.5,9.75 -1.15,4.4 -2.3,8.9 -2.55,10 -0.4,1.75 -2.8,11.15 -4,15.75 -0.3,0.95 -0.7,2.65 -0.95,3.75 -0.2,1.1 -1.35,5.6 -2.5,10 -2.25,8.4 -2.65,10.1 -3.5,13.75 -0.25,1.2 -0.95,4.05 -1.55,6.25 -0.6,2.2 -1.25,4.75 -1.5,5.75 -0.2,0.95 -0.65,2.65 -0.95,3.75 -0.35,1.1 -0.8,2.9 -1.05,4 -0.25,1.1 -0.9,3.65 -1.45,5.75 -0.5,2.05 -1.1,4.3 -1.25,5 -0.95,3.75 -1.25,4.9 -1.7,6.75 -0.3,1.1 -1.6,6.25 -2.85,11.45 -1.3,5.25 -2.55,10.05 -2.8,10.65 -0.4,1.1 -1.3,1.5 -1.55,0.7 M 154.5,219.5 l -2,-3.5 h 17.45 17.4 l -3.45,3.5 -3.4,3.5 h -12 -12 l -2,-3.5 m -10.25,-18.25 c -0.95,-2.1 -1.9,-4.35 -2.05,-5 L 141.85,195 h 32.8 c 18.05,0 32.85,0.05 32.85,0.15 0,0.1 -2.15,2.35 -4.75,5 L 198,205 h -26 -26 l -1.75,-3.75 m 131.1,-4.25 -2.1,-2 h 4.6 4.6 l -2.25,2 c -1.2,1.1 -2.35,2 -2.45,2 -0.15,0 -1.25,-0.9 -2.4,-2 m -138.1,-13.9 c -0.45,-1.6 -1,-3.55 -1.25,-4.35 -0.25,-0.85 -0.6,-2.5 -0.8,-3.65 l -0.3,-2.1 h 47.4 47.4 l -6.35,6.5 L 217,186 H 177.5 138 l -0.75,-2.9 m 120.8,-3.6 -6.45,-6.5 h 26 c 14.35,0 25.95,0.05 25.85,0.2 -0.15,0.1 -3,3.05 -6.35,6.5 L 291,186 H 277.75 264.5 l -6.45,-6.5 M 133,163.85 c -0.25,-1.15 -0.6,-4.1 -0.75,-6.5 L 131.9,153 h 95.7 95.7 l -6.25,6.5 -6.25,6.5 h -33 -33.05 l -2.15,-2.15 -2.1,-2.1 -2.25,2.1 L 236,166 H 184.75 133.5 l -0.5,-2.15 m -1.5,-22.5 c 0,-3.65 0.2,-7.45 0.5,-8.5 l 0.5,-1.85 h 106 c 58.3,0 105.95,0.05 105.95,0.1 0,0.05 -3.7,3.9 -8.25,8.5 L 328,148 H 229.75 131.5 v -6.65 m 1.2,-15.25 c 0.25,-1.85 0.9,-5.85 1.7,-10.1 0.25,-1.25 0.7,-2.9 1.1,-3.65 l 0.65,-1.35 114.25,-0.05 h 114.3 l -8.35,8.5 L 348,128 H 240.25 132.5 l 0.2,-1.9 M 390,119.4 c -4.4,-4.45 -8,-8.2 -8,-8.25 0,-0.1 3.55,-0.15 7.95,-0.15 7.1,0 8.05,0.05 8.45,0.85 0.6,1.15 1.75,6.7 2.75,13.5 l 0.35,2.15 h -1.75 c -1.6,0 -2.45,-0.75 -9.75,-8.1 M 136.5,108.5 c 0,-2.5 3.9,-13.45 7.9,-22.1 3.8,-8.2 10.3,-18.65 17,-27.15 3.85,-4.95 17,-17.95 22.1,-21.85 15.95,-12.3 32.8,-20.45 51.25,-24.9 2.45,-0.6 5.3,-1.3 6.3,-1.55 1,-0.25 2.45,-0.5 3.3,-0.5 0.8,0 2.15,-0.2 2.95,-0.45 3.7,-1.2 24.25,-1.9 31.2,-1.05 18.4,2.2 29.55,5.15 44.65,11.85 27.75,12.25 52.85,36.9 66.05,64.95 4.35,9.1 8.45,20.5 8.2,22.65 l -0.15,1.35 -8.3,0.1 -8.3,0.15 -3.65,-3.75 c -2,-2.1 -3.8,-3.75 -3.95,-3.75 -0.2,0 -2,1.65 -3.95,3.75 L 365.5,110 H 251 136.5 v -1.5"
       id="path263" />
  </g>
  <text
     xml:space="preserve"
     style="font-size:64px;fill:#000000"
     x="-3.52"
     y="298.28568"
     id="text327"><tspan
       sodipodi:role="line"
       id="tspan325"
       x="-3.52"
       y="298.28568"
       style="font-style:normal;font-variant:normal;font-weight:800;font-stretch:normal;font-size:64px;font-family:'Golos Text';-inkscape-font-specification:'Golos Text Ultra-Bold'">Mirage</tspan></text>
</svg>
