<?xml version="1.0" encoding="UTF-8" standalone="no"?>
<svg
   version="1.0"
   width="603px"
   height="330px"
   viewBox="0 0 603 330"
   preserveAspectRatio="xMidYMid meet"
   id="svg267"
   sodipodi:docname="pyramids with text.svg"
   inkscape:version="1.2.2 (732a01da63, 2022-12-09)"
   xmlns:inkscape="http://www.inkscape.org/namespaces/inkscape"
   xmlns:sodipodi="http://sodipodi.sourceforge.net/DTD/sodipodi-0.dtd"
   xmlns="http://www.w3.org/2000/svg"
   xmlns:svg="http://www.w3.org/2000/svg">
  <defs
     id="defs271" />
  <sodipodi:namedview
     id="namedview269"
     pagecolor="#505050"
     bordercolor="#eeeeee"
     borderopacity="1"
     inkscape:showpageshadow="0"
     inkscape:pageopacity="0"
     inkscape:pagecheckerboard="0"
     inkscape:deskcolor="#505050"
     showgrid="false"
     inkscape:zoom="1.1078006"
     inkscape:cx="251.39903"
     inkscape:cy="154.35991"
     inkscape:window-width="1366"
     inkscape:window-height="697"
     inkscape:window-x="-8"
     inkscape:window-y="-8"
     inkscape:window-maximized="1"
     inkscape:current-layer="svg267" />
  <g
     fill="#000000"
     fill-rule="evenodd"
     id="g265">
    <path
       d="M240.35 320.20 C155.90 320.10 86.60 319.80 86.35 319.55 C86.10 319.30 95.80 309.15 107.85 296.90 C140.30 263.95 166.50 237.15 166.50 236.75 C166.50 236.60 165 234.70 163.20 232.60 C161.40 230.45 158.90 227.55 157.70 226.15 C156.45 224.70 155.50 223.40 155.50 223.25 C155.50 223.10 153.95 220.65 152.15 217.85 C148.60 212.45 142.60 200.95 141.20 197.05 C140.75 195.80 140.15 194.30 139.90 193.80 C139.05 192.20 135.65 181.40 134.50 176.75 C133.90 174.25 133.30 171.80 133.15 171.25 C133.05 170.70 132.70 168.90 132.45 167.25 C129.80 150.55 130.20 129.75 133.40 115.75 C134.35 111.65 136.55 103.60 137.80 100 C148.75 66.95 173.45 38.45 204.80 22.45 C219.90 14.80 234.25 10.45 251.75 8.35 C262.95 7 285.35 7.95 294.25 10.15 C294.80 10.30 297.25 10.90 299.75 11.50 C334 19.80 364.15 41.70 383 72.05 C389.60 82.65 396.05 97.40 398.50 107.50 C399.55 111.75 399.95 113.35 400.50 115.50 C401.15 118 401.75 121.65 402.50 128 L403 132.25 496.60 226 L590.25 319.75 562.35 319.85 C449.65 320.35 374.30 320.45 240.35 320.20 M95.85 310.85 C107.40 298.95 205.25 199.20 211.75 192.75 C214.75 189.70 221.55 182.80 226.80 177.35 C232.10 171.90 236.65 167.50 236.95 167.50 C237.80 167.50 237.55 169.50 236.20 173.25 C235.45 175.15 234.70 177.30 234.50 178 C234.30 178.65 233.20 181.50 232.05 184.25 C230.90 187 228.75 192.65 227.20 196.75 C225.65 200.85 223.75 206.05 222.90 208.25 C222.05 210.45 221.10 213.15 220.75 214.25 C220.40 215.35 219.15 218.60 217.95 221.50 C215.70 227.15 214.10 231.35 212.25 236.50 C211.60 238.25 209.45 244 207.50 249.25 C205.50 254.45 203.55 259.75 203.15 261 C202.75 262.20 202.10 263.90 201.75 264.75 C201.05 266.25 199.45 270.35 196.95 277.10 C192.05 290.15 189.55 296.75 187.95 301 C187.15 303.05 185.80 306.65 184.95 309 C184.05 311.30 182.70 314.40 181.90 315.85 L180.50 318.50 134.25 318.75 L88 319 95.85 310.85 M182.70 318.50 C182.55 318.20 182.70 317.50 183 316.90 C183.30 316.35 184.10 314.35 184.75 312.55 C185.40 310.70 186.50 307.75 187.15 306 C189.35 300.30 197.90 277.70 201.75 267.50 C203.85 261.80 209.05 248 211.55 241.50 C212.65 238.60 214.20 234.55 215 232.50 C215.75 230.40 217.30 226.35 218.40 223.50 C221.10 216.45 224.35 207.80 225.50 204.75 C227.35 199.70 230.60 191.15 231.50 189 C232.40 186.85 235.35 178.95 238.50 170.40 C240.10 166.05 240.85 164.45 241.40 164.50 C241.60 164.50 249.95 172.75 259.90 182.85 C269.90 192.95 294.55 217.75 314.65 238 C391.25 314.95 394.25 318 393.60 318.50 C392.75 319.15 183.05 319.15 182.70 318.50 M366.10 288.15 L335.75 257.35 335.75 255.05 C335.80 253.75 336.75 249.15 337.95 244.75 C339.10 240.35 340.25 235.95 340.50 235 C340.70 234 341.15 232.35 341.50 231.25 C342.05 229.15 342.65 226.80 343.40 223.60 C343.65 222.55 344.35 219.80 344.95 217.50 C345.55 215.15 346.25 212.45 346.50 211.50 C346.70 210.50 347.15 208.85 347.45 207.75 C347.75 206.65 348.45 203.80 348.95 201.50 C349.50 199.15 350.45 195.55 351 193.50 C351.55 191.40 352.25 188.70 352.50 187.50 C352.80 186.25 353.25 184.45 353.50 183.50 C353.75 182.50 354.15 180.85 354.40 179.75 C354.70 178.65 355.40 175.95 356 173.75 C356.60 171.55 357.25 168.85 357.50 167.75 C357.90 165.75 358.80 162.15 361 154.25 C361.60 152.05 362.25 149.35 362.50 148.25 C362.75 147.15 363.85 142.65 365 138.25 C366.15 133.85 367.30 129.35 367.50 128.25 C367.75 127.15 368.40 124.55 368.95 122.50 C369.45 120.40 370.65 115.80 371.55 112.25 C372.70 107.80 373.45 105.70 374 105.60 C374.40 105.50 419.15 149.90 481 211.75 C559.05 289.80 587.05 318.15 586.60 318.50 C586.20 318.80 552.10 319 491.25 319 L396.50 319 366.10 288.15 M332.85 255.05 C332.80 254.80 320.50 242.25 305.60 227.15 C280.55 201.90 278.50 199.65 279.40 199.10 C279.90 198.70 288.10 190.50 297.55 180.85 C320 157.80 359.85 117.10 366.25 110.75 C370.75 106.25 371.25 105.85 371.40 106.95 C371.50 107.65 371.35 108.95 371.05 109.95 C370.50 111.70 366.25 128.60 365.50 132 C365.25 132.95 364.15 137.35 363 141.75 C361.85 146.15 360.70 150.65 360.45 151.75 C360.05 153.50 357.65 162.90 356.45 167.50 C356.15 168.45 355.75 170.15 355.50 171.25 C355.30 172.35 354.15 176.85 353 181.25 C350.75 189.65 350.35 191.35 349.50 195 C349.25 196.20 348.55 199.05 347.95 201.25 C347.35 203.45 346.70 206 346.45 207 C346.25 207.95 345.80 209.65 345.50 210.75 C345.15 211.85 344.70 213.65 344.45 214.75 C344.20 215.85 343.55 218.40 343 220.50 C342.50 222.55 341.90 224.80 341.75 225.50 C340.80 229.25 340.50 230.40 340.05 232.25 C339.75 233.35 338.45 238.50 337.20 243.70 C335.90 248.95 334.65 253.75 334.40 254.35 C334 255.45 333.10 255.85 332.85 255.05 M154.50 219.50 L152.50 216 169.95 216 L187.35 216 183.90 219.50 L180.50 223 168.50 223 L156.50 223 154.50 219.50 M144.25 201.25 C143.30 199.15 142.35 196.90 142.20 196.25 L141.85 195 174.65 195 C192.70 195 207.50 195.05 207.50 195.15 C207.50 195.25 205.35 197.50 202.75 200.15 L198 205 172 205 L146 205 144.25 201.25 M275.35 197 L273.25 195 277.85 195 L282.45 195 280.20 197 C279 198.10 277.85 199 277.75 199 C277.60 199 276.50 198.10 275.35 197 M137.25 183.10 C136.80 181.50 136.25 179.55 136 178.75 C135.75 177.90 135.40 176.25 135.20 175.10 L134.90 173 182.30 173 L229.70 173 223.35 179.50 L217 186 177.50 186 L138 186 137.25 183.10 M258.05 179.50 L251.60 173 277.60 173 C291.95 173 303.55 173.05 303.45 173.20 C303.30 173.30 300.45 176.25 297.10 179.70 L291 186 277.75 186 L264.50 186 258.05 179.50 M133 163.85 C132.75 162.70 132.40 159.75 132.25 157.35 L131.90 153 227.60 153 L323.30 153 317.05 159.50 L310.80 166 277.80 166 L244.75 166 242.60 163.85 L240.50 161.75 238.25 163.85 L236 166 184.75 166 L133.50 166 133 163.85 M131.50 141.35 C131.50 137.70 131.70 133.90 132 132.85 L132.50 131 238.50 131 C296.80 131 344.45 131.05 344.45 131.10 C344.45 131.15 340.75 135 336.20 139.60 L328 148 229.75 148 L131.50 148 131.50 141.35 M132.70 126.10 C132.95 124.25 133.60 120.25 134.40 116 C134.65 114.75 135.10 113.10 135.50 112.35 L136.15 111 250.40 110.95 L364.70 110.95 356.35 119.45 L348 128 240.25 128 L132.50 128 132.70 126.10 M390 119.40 C385.60 114.95 382 111.20 382 111.15 C382 111.05 385.55 111 389.95 111 C397.05 111 398 111.05 398.40 111.85 C399 113 400.15 118.55 401.15 125.35 L401.50 127.50 399.75 127.50 C398.15 127.50 397.30 126.75 390 119.40 M136.50 108.50 C136.50 106 140.40 95.05 144.40 86.40 C148.20 78.20 154.70 67.75 161.40 59.25 C165.25 54.30 178.40 41.30 183.50 37.40 C199.45 25.10 216.30 16.95 234.75 12.50 C237.20 11.90 240.05 11.20 241.05 10.95 C242.05 10.70 243.50 10.45 244.35 10.45 C245.15 10.45 246.50 10.25 247.30 10 C251 8.80 271.55 8.10 278.50 8.95 C296.90 11.15 308.05 14.10 323.15 20.80 C350.90 33.05 376 57.70 389.20 85.75 C393.55 94.85 397.65 106.25 397.40 108.40 L397.25 109.75 388.95 109.85 L380.65 110 377 106.25 C375 104.15 373.20 102.50 373.05 102.50 C372.85 102.50 371.05 104.15 369.10 106.25 L365.50 110 251 110 L136.50 110 136.50 108.50 "
       id="path263" />
  </g>
  <text
     xml:space="preserve"
     style="font-size:64px;fill:#000000"
     x="56.090942"
     y="306.01175"
     id="text327"><tspan
       sodipodi:role="line"
       id="tspan325"
       x="56.090942"
       y="306.01175"
       style="font-style:normal;font-variant:normal;font-weight:800;font-stretch:normal;font-size:64px;font-family:'Golos Text';-inkscape-font-specification:'Golos Text Ultra-Bold';font-variant-ligatures:normal;font-variant-caps:normal;font-variant-numeric:normal;font-variant-east-asian:normal">Mirage</tspan></text>
</svg>
